<?xml version="1.0" encoding="utf-8"?>
<!-- Generator: Adobe Illustrator 16.0.0, SVG Export Plug-In . SVG Version: 6.00 Build 0)  -->
<!DOCTYPE svg PUBLIC "-//W3C//DTD SVG 1.1//EN" "http://www.w3.org/Graphics/SVG/1.1/DTD/svg11.dtd">
<svg version="1.1" id="Layer_1" xmlns="http://www.w3.org/2000/svg" xmlns:xlink="http://www.w3.org/1999/xlink" x="0px" y="0px"
	 width="270px" height="270px" viewBox="0 0 270 270" enable-background="new 0 0 270 270" xml:space="preserve">
<path fill="#4780A5" d="M168.923,94.119c0,2.52-0.375,4.76-1.121,6.72c-0.748,1.96-1.727,3.688-2.939,5.181
	c-1.213,1.494-2.52,2.848-3.92,4.06c-1.4,1.214-2.754,2.288-4.061,3.22c-1.867,1.309-3.477,2.59-4.83,3.85s-2.473,2.568-3.359,3.92
	c-0.889,1.354-1.564,2.849-2.029,4.48c-0.469,1.635-0.701,3.523-0.701,5.67v5.32c0,0.84-0.139,1.564-0.42,2.17
	c-0.279,0.607-0.934,0.91-1.959,0.91h-13.86c-1.027,0-1.75-0.186-2.17-0.561c-0.42-0.371-0.723-1.119-0.91-2.24
	c-0.188-1.399-0.303-2.66-0.35-3.779c-0.049-1.12-0.07-2.191-0.07-3.221c0-3.451,0.35-6.461,1.051-9.029
	c0.699-2.566,1.701-4.876,3.01-6.93c1.307-2.053,2.893-3.99,4.76-5.811c1.866-1.82,4.011-3.71,6.44-5.67
	c1.398-1.212,2.52-2.332,3.359-3.359c0.84-1.026,1.26-2.24,1.26-3.641c0-2.426-0.863-4.13-2.59-5.109
	c-1.729-0.98-4.598-1.471-8.61-1.471c-2.053,0-4.27,0.094-6.648,0.28c-2.381,0.188-4.645,0.374-6.791,0.56
	c-1.773,0.188-2.869,0.141-3.289-0.14s-0.725-1.026-0.91-2.24l-0.84-8.12c-0.189-1.306-0.141-2.24,0.139-2.8
	c0.281-0.56,1.121-1.166,2.521-1.819c1.68-0.652,3.43-1.213,5.25-1.681c1.818-0.466,3.592-0.792,5.318-0.979
	c1.727-0.187,3.336-0.326,4.83-0.42c1.492-0.092,2.8-0.141,3.921-0.141c9.891,0,17.451,1.938,22.68,5.811
	C166.31,80.982,168.923,86.652,168.923,94.119z M147.224,156.419c0,1.308-0.141,2.567-0.422,3.78
	c-0.279,1.214-0.816,2.31-1.609,3.289c-0.793,0.98-1.891,1.775-3.289,2.381c-1.4,0.605-3.27,0.91-5.601,0.91
	c-2.428,0-4.34-0.305-5.74-0.91c-1.398-0.605-2.498-1.4-3.289-2.381c-0.795-0.979-1.309-2.075-1.541-3.289
	c-0.232-1.213-0.35-2.473-0.35-3.78c0-1.399,0.162-2.729,0.49-3.99c0.326-1.26,0.91-2.331,1.75-3.22
	c0.84-0.887,1.961-1.609,3.359-2.17c1.4-0.561,3.172-0.84,5.32-0.84c4.479,0,7.421,0.958,8.819,2.869
	C146.522,150.982,147.224,153.434,147.224,156.419z"/>
<path fill="#469BD1" d="M166.923,96.119c0,2.52-0.375,4.76-1.121,6.72c-0.748,1.96-1.727,3.688-2.939,5.181
	c-1.213,1.494-2.52,2.848-3.92,4.06c-1.4,1.214-2.754,2.288-4.061,3.22c-1.867,1.309-3.477,2.59-4.83,3.85s-2.473,2.568-3.359,3.92
	c-0.889,1.354-1.564,2.849-2.029,4.48c-0.469,1.635-0.701,3.523-0.701,5.67v5.32c0,0.84-0.139,1.564-0.42,2.17
	c-0.279,0.607-0.934,0.91-1.959,0.91h-13.86c-1.027,0-1.75-0.186-2.17-0.561c-0.42-0.371-0.724-1.119-0.91-2.24
	c-0.188-1.399-0.304-2.66-0.35-3.779c-0.049-1.12-0.07-2.191-0.07-3.221c0-3.451,0.35-6.461,1.051-9.029
	c0.699-2.566,1.701-4.876,3.01-6.93c1.306-2.053,2.892-3.99,4.76-5.811c1.865-1.82,4.011-3.71,6.44-5.67
	c1.398-1.212,2.52-2.332,3.359-3.359c0.84-1.026,1.26-2.24,1.26-3.641c0-2.426-0.863-4.13-2.59-5.109
	c-1.729-0.98-4.598-1.471-8.61-1.471c-2.054,0-4.27,0.094-6.649,0.28c-2.38,0.188-4.644,0.374-6.79,0.56
	c-1.773,0.188-2.87,0.141-3.29-0.14s-0.724-1.026-0.91-2.24l-0.84-8.12c-0.188-1.306-0.14-2.24,0.14-2.8
	c0.28-0.56,1.121-1.166,2.521-1.819c1.68-0.652,3.43-1.213,5.25-1.681c1.819-0.466,3.592-0.792,5.319-0.979
	c1.727-0.187,3.336-0.326,4.83-0.42c1.492-0.092,2.801-0.141,3.921-0.141c9.891,0,17.451,1.938,22.68,5.811
	C164.31,82.982,166.923,88.652,166.923,96.119z M145.224,158.419c0,1.308-0.141,2.567-0.422,3.78
	c-0.279,1.214-0.816,2.31-1.609,3.289c-0.793,0.98-1.891,1.775-3.289,2.381c-1.4,0.605-3.27,0.91-5.601,0.91
	c-2.428,0-4.34-0.305-5.74-0.91c-1.399-0.605-2.498-1.4-3.289-2.381c-0.795-0.979-1.309-2.075-1.541-3.289
	c-0.233-1.213-0.35-2.473-0.35-3.78c0-1.399,0.162-2.729,0.49-3.99c0.326-1.26,0.91-2.331,1.75-3.22
	c0.84-0.887,1.96-1.609,3.359-2.17c1.4-0.561,3.172-0.84,5.32-0.84c4.479,0,7.421,0.958,8.819,2.869
	C144.522,152.982,145.224,155.434,145.224,158.419z"/>
<path fill="#469BD1" d="M87.166,186.533c0.155,0,0.254,0.045,0.297,0.135c0.041,0.09,0.063,0.183,0.063,0.279v11.159
	c0,0.097-0.021,0.187-0.063,0.271c-0.043,0.084-0.142,0.126-0.297,0.126h-2.088c-0.156,0-0.262-0.036-0.316-0.108
	c-0.053-0.071-0.08-0.168-0.08-0.288v-9.18h-3.528v9.18c0,0.096-0.021,0.187-0.063,0.271c-0.041,0.084-0.146,0.126-0.314,0.126
	h-2.088c-0.145,0-0.243-0.036-0.297-0.108c-0.055-0.071-0.081-0.168-0.081-0.288v-11.159c0-0.12,0.026-0.219,0.081-0.297
	c0.054-0.078,0.152-0.117,0.297-0.117H87.166z M100.107,192.365c0,0.684-0.051,1.395-0.152,2.133
	c-0.103,0.738-0.334,1.416-0.693,2.034c-0.36,0.618-0.885,1.128-1.575,1.529c-0.69,0.402-1.623,0.604-2.799,0.604
	c-0.78,0-1.449-0.093-2.007-0.279c-0.559-0.186-1.026-0.435-1.404-0.747c-0.378-0.312-0.678-0.678-0.9-1.098
	c-0.222-0.42-0.393-0.864-0.513-1.332s-0.198-0.945-0.233-1.431c-0.037-0.486-0.055-0.957-0.055-1.413
	c0-0.349,0.021-0.741,0.063-1.18c0.043-0.438,0.127-0.875,0.252-1.313c0.127-0.438,0.304-0.867,0.531-1.287
	c0.229-0.42,0.531-0.792,0.909-1.116s0.843-0.585,1.396-0.783c0.552-0.197,1.211-0.297,1.979-0.297c1.128,0,2.031,0.178,2.71,0.531
	c0.678,0.354,1.202,0.816,1.574,1.386c0.372,0.57,0.618,1.213,0.738,1.926C100.047,190.946,100.107,191.657,100.107,192.365z
	 M97.174,192.563c0-1.283-0.16-2.223-0.478-2.816s-0.909-0.892-1.772-0.892c-0.805,0-1.359,0.304-1.666,0.909
	c-0.305,0.606-0.459,1.539-0.459,2.799c0,1.213,0.147,2.122,0.441,2.728c0.294,0.606,0.855,0.909,1.684,0.909
	c0.852,0,1.439-0.297,1.764-0.892C97.012,194.714,97.174,193.799,97.174,192.563z M108.819,192.113
	c0.504,0.204,0.905,0.53,1.206,0.98c0.3,0.45,0.45,1.005,0.45,1.665s-0.117,1.233-0.351,1.719c-0.234,0.486-0.568,0.892-1,1.216
	c-0.432,0.323-0.951,0.566-1.557,0.729s-1.275,0.243-2.007,0.243c-0.169,0-0.402-0.009-0.702-0.027
	c-0.301-0.018-0.618-0.048-0.954-0.09s-0.669-0.093-0.999-0.153c-0.33-0.06-0.621-0.138-0.873-0.233
	c-0.229-0.096-0.384-0.189-0.468-0.279s-0.126-0.201-0.126-0.333c0-0.084,0.006-0.149,0.018-0.198l0.198-0.989
	c0.024-0.156,0.065-0.265,0.126-0.324c0.061-0.061,0.156-0.09,0.288-0.09c0.084,0,0.149,0.006,0.198,0.018
	c0.527,0.084,1.064,0.15,1.611,0.198c0.545,0.048,1.035,0.072,1.467,0.072c0.731,0,1.283-0.12,1.656-0.36
	c0.371-0.24,0.558-0.63,0.558-1.17c0-0.42-0.124-0.759-0.369-1.018c-0.246-0.258-0.657-0.387-1.233-0.387h-1.332
	c-0.216,0-0.357-0.033-0.423-0.099c-0.065-0.066-0.099-0.201-0.099-0.405v-1.17c0-0.191,0.033-0.333,0.099-0.423
	s0.201-0.135,0.405-0.135h1.314c0.383,0,0.731-0.097,1.043-0.288c0.313-0.192,0.469-0.462,0.469-0.811
	c0-0.239-0.049-0.44-0.145-0.603s-0.229-0.291-0.396-0.388c-0.169-0.096-0.366-0.161-0.595-0.197
	c-0.228-0.036-0.474-0.055-0.737-0.055c-0.349,0-0.757,0.021-1.224,0.063c-0.469,0.042-0.955,0.111-1.459,0.207
	c-0.06,0.012-0.113,0.021-0.162,0.027c-0.047,0.006-0.09,0.009-0.125,0.009c-0.108,0-0.187-0.024-0.234-0.072
	c-0.049-0.048-0.09-0.138-0.126-0.27c-0.036-0.192-0.072-0.379-0.108-0.559c-0.035-0.18-0.078-0.366-0.125-0.558
	c-0.013-0.048-0.019-0.114-0.019-0.198c0-0.108,0.038-0.201,0.116-0.279c0.078-0.077,0.226-0.164,0.441-0.261
	c0.252-0.096,0.534-0.18,0.846-0.252c0.313-0.072,0.625-0.129,0.937-0.171s0.612-0.072,0.899-0.09
	c0.289-0.019,0.541-0.027,0.757-0.027c1.499,0,2.598,0.297,3.294,0.891c0.695,0.595,1.044,1.42,1.044,2.476
	c0,0.504-0.136,0.98-0.405,1.431S109.275,191.885,108.819,192.113z M118.953,186.948c0-0.12,0.029-0.22,0.09-0.298
	s0.162-0.117,0.307-0.117h2.088c0.168,0,0.272,0.045,0.314,0.135s0.063,0.183,0.063,0.279v11.159c0,0.097-0.021,0.187-0.063,0.271
	s-0.146,0.126-0.314,0.126h-2.088c-0.265,0-0.396-0.132-0.396-0.396v-4.607h-3.51v4.607c0,0.097-0.021,0.187-0.063,0.271
	s-0.147,0.126-0.315,0.126h-2.088c-0.264,0-0.396-0.132-0.396-0.396v-11.159c0-0.12,0.03-0.219,0.09-0.297s0.162-0.117,0.306-0.117
	h2.088c0.168,0,0.273,0.045,0.315,0.136c0.042,0.09,0.063,0.184,0.063,0.279v4.156h3.51V186.948z M126.081,197.999
	c-0.06,0.192-0.138,0.324-0.233,0.396c-0.097,0.072-0.229,0.108-0.396,0.108h-1.998c-0.133,0-0.223-0.027-0.27-0.081
	c-0.049-0.054-0.043-0.183,0.018-0.387l3.474-10.98c0.06-0.168,0.132-0.297,0.216-0.387s0.246-0.135,0.486-0.135h2.268
	c0.252,0,0.418,0.048,0.496,0.144c0.077,0.097,0.146,0.229,0.207,0.396l3.617,10.998c0.036,0.144,0.042,0.252,0.018,0.323
	c-0.023,0.072-0.102,0.108-0.233,0.108h-2.231c-0.205,0-0.343-0.045-0.414-0.135c-0.072-0.09-0.139-0.231-0.199-0.423l-0.594-2.143
	h-3.582L126.081,197.999z M129.141,191.637l-0.576-2.206h-0.09l-0.594,2.188l-0.54,2.007h2.341L129.141,191.637z M144.593,191.996
	c-0.029,0.906-0.08,1.716-0.152,2.43s-0.18,1.335-0.324,1.863s-0.365,0.969-0.666,1.323c-0.301,0.354-0.695,0.621-1.188,0.801
	s-1.111,0.275-1.854,0.288c-0.313,0-0.508-0.036-0.586-0.108s-0.117-0.191-0.117-0.359c0-0.204-0.008-0.402-0.027-0.595
	c-0.018-0.191-0.027-0.39-0.027-0.594c0-0.168,0.025-0.272,0.072-0.315c0.049-0.041,0.156-0.087,0.324-0.135
	c0.301-0.072,0.553-0.162,0.756-0.27c0.205-0.108,0.373-0.268,0.504-0.478c0.133-0.21,0.232-0.482,0.297-0.818
	c0.066-0.336,0.117-0.774,0.154-1.314c0.072-1.14,0.143-2.268,0.215-3.384s0.139-2.238,0.199-3.366c0-0.275,0.131-0.414,0.395-0.414
	h6.697c0.252,0,0.377,0.139,0.377,0.414v11.142c0,0.097-0.02,0.187-0.063,0.271s-0.146,0.126-0.314,0.126h-2.143
	c-0.275,0-0.414-0.132-0.414-0.396v-9.126h-1.961C144.675,190.085,144.624,191.09,144.593,191.996z M152.036,186.965
	c0-0.132,0.027-0.234,0.082-0.306c0.053-0.072,0.158-0.108,0.314-0.108h2.07c0.168,0,0.275,0.045,0.324,0.135
	c0.047,0.091,0.07,0.184,0.07,0.279v6.444c0.109-0.156,0.213-0.315,0.316-0.478c0.102-0.162,0.207-0.326,0.314-0.495l3.42-5.399
	c0.096-0.12,0.195-0.231,0.297-0.333s0.273-0.153,0.514-0.153h1.764c0.156,0,0.258,0.045,0.307,0.135
	c0.047,0.091,0.07,0.178,0.07,0.262v11.178c0,0.096-0.023,0.183-0.07,0.261c-0.049,0.078-0.156,0.117-0.324,0.117h-2.07
	c-0.264,0-0.396-0.126-0.396-0.378v-6.642h-0.018l-4.158,6.533c-0.096,0.133-0.207,0.246-0.332,0.343
	c-0.127,0.096-0.311,0.144-0.551,0.144h-1.547c-0.156,0-0.262-0.033-0.314-0.099c-0.055-0.066-0.082-0.159-0.082-0.279V186.965z
	 M175.507,193.301l1.369-2.826l1.746-3.491c0.084-0.145,0.174-0.255,0.27-0.333s0.264-0.117,0.504-0.117h1.477
	c0.168,0,0.27,0.045,0.307,0.135c0.035,0.09,0.053,0.177,0.053,0.261v11.178c0,0.097-0.018,0.187-0.053,0.271
	c-0.037,0.084-0.139,0.126-0.307,0.126h-2.016c-0.156,0-0.262-0.036-0.316-0.108c-0.053-0.071-0.08-0.168-0.08-0.288v-5.508
	l-0.055-0.018l-0.629,1.404l-1.135,2.321c-0.084,0.145-0.18,0.259-0.287,0.343c-0.109,0.084-0.266,0.126-0.469,0.126h-0.883
	c-0.215,0-0.375-0.039-0.477-0.117s-0.195-0.183-0.279-0.315l-1.17-2.412l-0.629-1.368l-0.037,0.019v5.525
	c0,0.097-0.02,0.187-0.063,0.271s-0.146,0.126-0.314,0.126h-2.016c-0.145,0-0.244-0.036-0.297-0.108
	c-0.055-0.071-0.082-0.168-0.082-0.288v-11.178c0-0.107,0.027-0.2,0.082-0.278c0.053-0.078,0.152-0.117,0.297-0.117h1.547
	c0.24,0,0.412,0.033,0.514,0.099c0.102,0.066,0.195,0.178,0.279,0.333l1.746,3.546l1.332,2.79H175.507z M183.681,186.947
	c0-0.12,0.025-0.219,0.08-0.297s0.158-0.117,0.314-0.117h7.146c0.252,0,0.379,0.131,0.379,0.393v1.626
	c0,0.107-0.027,0.196-0.082,0.268c-0.055,0.072-0.158,0.107-0.314,0.107h-4.662v2.196h4.068c0.275,0,0.414,0.126,0.414,0.378v1.638
	c0,0.108-0.027,0.198-0.082,0.271c-0.053,0.071-0.164,0.107-0.332,0.107h-4.068v2.593h4.752c0.264,0,0.396,0.132,0.396,0.396v1.638
	c0,0.108-0.027,0.195-0.082,0.262c-0.053,0.065-0.158,0.099-0.314,0.099h-7.219c-0.156,0-0.26-0.036-0.314-0.108
	c-0.055-0.071-0.08-0.161-0.08-0.27V186.947z"/>
</svg>
